<svg xmlns="http://www.w3.org/2000/svg" viewBox="0 0 99.98 86.02"><defs><style>.cls-1{fill:none;stroke:#101010;stroke-miterlimit:10;stroke-width:2px;}</style></defs><g id="레이어_2" data-name="레이어 2"><g id="레이어_1-2" data-name="레이어 1"><path class="cls-1" d="M24,84.63l-5.07-7.8.45-.29a8.32,8.32,0,0,0,3.6-6.28A12.79,12.79,0,0,0,20.8,62c-3.43-5.26-9.66-7.31-13.89-4.55l-.45.29L1.38,49.92,76,1.38,81.1,9.19l-.45.29a8.3,8.3,0,0,0-3.6,6.27A12.82,12.82,0,0,0,79.18,24c3.43,5.27,9.66,7.31,13.9,4.56l.45-.29,5.07,7.8Zm-3.6-7.5,3.92,6L97.12,35.78l-3.92-6c-4.71,2.65-11.29.43-14.91-5.15a13.87,13.87,0,0,1-2.3-9,9.43,9.43,0,0,1,3.64-6.75l-3.91-6L2.86,50.24l3.92,6c4.71-2.66,11.29-.43,14.91,5.15a13.86,13.86,0,0,1,2.31,9A9.49,9.49,0,0,1,20.35,77.13Z"/><rect class="cls-1" x="17.54" y="31.23" width="55.09" height="1.07" transform="translate(-10.03 29.71) rotate(-33.04)"/><rect class="cls-1" x="30.13" y="50.6" width="55.09" height="1.07" transform="matrix(0.84, -0.55, 0.55, 0.84, -18.55, 39.71)"/><rect class="cls-1" x="23.84" y="40.91" width="55.09" height="1.07" transform="translate(-14.29 34.71) rotate(-33.04)"/></g></g></svg>